<svg preserveAspectRatio="xMidYMid meet" viewBox="0 0 736.000000 736.000000" height="736.000000pt" width="736.000000pt" xmlns="http://www.w3.org/2000/svg" version="1.0">
<metadata>
Created by potrace 1.16, written by Peter Selinger 2001-2019
</metadata>
<g stroke="none" fill="#ffffff" transform="translate(0.000000,736.000000) scale(0.100000,-0.100000)">
<path d="M2704 4701 c7 -10 425 -365 1141 -966 105 -88 240 -201 300 -252
l110 -93 5 538 5 537 113 3 112 3 0 -791 c0 -434 -3 -790 -6 -790 -3 0 -98 80
-212 178 -113 97 -222 191 -243 207 -20 17 -70 59 -111 95 -41 36 -281 243
-534 460 -252 217 -520 447 -595 512 -75 65 -141 118 -145 118 -5 0 -8 -406
-7 -903 l2 -902 121 -3 120 -3 2 646 3 645 125 -107 c223 -191 816 -701 1099
-945 l276 -237 173 -1 172 0 0 1030 0 1030 -355 0 -355 0 -2 -401 -3 -401
-295 249 c-162 136 -377 317 -477 401 l-181 152 -182 0 c-101 0 -179 -4 -176
-9z"></path>
<path d="M3112 3048 l3 -393 123 -3 122 -3 0 294 0 293 -120 102 c-66 56 -122
102 -125 102 -3 0 -4 -177 -3 -392z"></path>
</g>
</svg>